<svg xmlns="http://www.w3.org/2000/svg" width="780" height="440" font-family="DejaVu Sans, Verdana, Liberation Sans, Arial, sans-serif" fill="black" role="img" aria-labelledby="plot-title plot-description">
<title id="plot-title">D2Q5 与 D2Q9 二维扩散性能对比</title>
<desc id="plot-description">D2Q5 与 D2Q9 当前 Rust 实现的单线程二维扩散吞吐量，单位为 MLUPS。每格点一组离散分布分别占 40 与 72 字节；当前双缓冲工作存储分别占 80 与 144 字节。CPU：Intel(R) Core(TM) i7-8550U CPU @ 1.80GHz；可用逻辑核：8；系统：Linux 7.0.0-30-generic；工具链：rustc 1.98.0 (88d9e12ae 2026-08-18)；目标：x86_64-unknown-linux-gnu</desc><rect width="100%" height="100%" fill="white" /><defs><clipPath id="kuva-clip-0"><rect x="61.300000000000004" y="46.95" width="610.75" height="322.05"/></clipPath></defs><g transform="translate(10,10)"><line x1="61.300000000000004" y1="46.95" x2="61.300000000000004" y2="369" stroke="#cccccc" stroke-width="1" /><line x1="122.58" y1="46.95" x2="122.58" y2="369" stroke="#cccccc" stroke-width="1" /><line x1="203.6" y1="46.95" x2="203.6" y2="369" stroke="#cccccc" stroke-width="1" /><line x1="264.88" y1="46.95" x2="264.88" y2="369" stroke="#cccccc" stroke-width="1" /><line x1="326.16" y1="46.95" x2="326.16" y2="369" stroke="#cccccc" stroke-width="1" /><line x1="407.18" y1="46.95" x2="407.18" y2="369" stroke="#cccccc" stroke-width="1" /><line x1="468.46000000000004" y1="46.95" x2="468.46000000000004" y2="369" stroke="#cccccc" stroke-width="1" /><line x1="529.75" y1="46.95" x2="529.75" y2="369" stroke="#cccccc" stroke-width="1" /><line x1="610.76" y1="46.95" x2="610.76" y2="369" stroke="#cccccc" stroke-width="1" /><line x1="672.04" y1="46.95" x2="672.04" y2="369" stroke="#cccccc" stroke-width="1" /><line x1="61.300000000000004" y1="369" x2="672.04" y2="369" stroke="#cccccc" stroke-width="1" /><line x1="61.300000000000004" y1="272.05" x2="672.04" y2="272.05" stroke="#cccccc" stroke-width="1" /><line x1="61.300000000000004" y1="143.9" x2="672.04" y2="143.9" stroke="#cccccc" stroke-width="1" /><line x1="61.300000000000004" y1="46.95" x2="672.04" y2="46.95" stroke="#cccccc" stroke-width="1" /><line x1="61.300000000000004" y1="369" x2="672.04" y2="369" stroke="#000000" stroke-width="1" /><line x1="61.300000000000004" y1="46.95" x2="61.300000000000004" y2="369" stroke="#000000" stroke-width="1" /><line x1="61.300000000000004" y1="369" x2="61.300000000000004" y2="374" stroke="#000000" stroke-width="1" /><text x="61.300000000000004" y="385.14" font-size="12" text-anchor="middle">1000</text><line x1="122.58" y1="369" x2="122.58" y2="374" stroke="#000000" stroke-width="1" /><text x="122.58" y="385.14" font-size="12" text-anchor="middle">2000</text><line x1="203.6" y1="369" x2="203.6" y2="374" stroke="#000000" stroke-width="1" /><text x="203.6" y="385.14" font-size="12" text-anchor="middle">5000</text><line x1="264.88" y1="369" x2="264.88" y2="374" stroke="#000000" stroke-width="1" /><text x="264.88" y="385.14" font-size="12" text-anchor="middle">10000</text><line x1="326.16" y1="369" x2="326.16" y2="374" stroke="#000000" stroke-width="1" /><text x="326.16" y="385.14" font-size="12" text-anchor="middle">20000</text><line x1="407.18" y1="369" x2="407.18" y2="374" stroke="#000000" stroke-width="1" /><text x="407.18" y="385.14" font-size="12" text-anchor="middle">50000</text><line x1="468.46000000000004" y1="369" x2="468.46000000000004" y2="374" stroke="#000000" stroke-width="1" /><text x="468.46000000000004" y="385.14" font-size="12" text-anchor="middle">100000</text><line x1="529.75" y1="369" x2="529.75" y2="374" stroke="#000000" stroke-width="1" /><text x="529.75" y="385.14" font-size="12" text-anchor="middle">200000</text><line x1="610.76" y1="369" x2="610.76" y2="374" stroke="#000000" stroke-width="1" /><text x="610.76" y="385.14" font-size="12" text-anchor="middle">500000</text><line x1="672.04" y1="369" x2="672.04" y2="374" stroke="#000000" stroke-width="1" /><text x="672.04" y="385.14" font-size="12" text-anchor="middle">1000000</text><line x1="56.300000000000004" y1="369" x2="61.300000000000004" y2="369" stroke="#000000" stroke-width="1" /><text x="53.300000000000004" y="373.37" font-size="12" text-anchor="end">10</text><line x1="56.300000000000004" y1="272.05" x2="61.300000000000004" y2="272.05" stroke="#000000" stroke-width="1" /><text x="53.300000000000004" y="276.43" font-size="12" text-anchor="end">20</text><line x1="56.300000000000004" y1="143.9" x2="61.300000000000004" y2="143.9" stroke="#000000" stroke-width="1" /><text x="53.300000000000004" y="148.27" font-size="12" text-anchor="end">50</text><line x1="56.300000000000004" y1="46.95" x2="61.300000000000004" y2="46.95" stroke="#000000" stroke-width="1" /><text x="53.300000000000004" y="51.33" font-size="12" text-anchor="end">100</text><text x="366.67" y="413" font-size="14" text-anchor="middle">格点总数 N²</text><text x="17.3" y="207.98000000000002" font-size="14" text-anchor="middle" transform="rotate(-90,17.3,207.98000000000002)">吞吐量（MLUPS）</text><text x="366.67" y="29.71" font-size="18" text-anchor="middle">单线程发布构建吞吐量</text><g clip-path="url(#kuva-clip-0)"><path d="M 185.96 135.65 L 308.53000000000003 131.14000000000001 L 431.1 145.61 L 553.67 175.88 " stroke="#2c7a4b" stroke-width="2" fill="none" /><path d="M 185.96 314.42 L 308.53000000000003 314.77 L 431.1 329.62 L 553.67 332.11 " stroke="#a74428" stroke-width="2" fill="none" /></g><rect x="677.04" y="36.95" width="73.96000000000001" height="50" fill="#ffffff" /><rect x="677.04" y="36.95" width="73.96000000000001" height="50" fill="none" stroke="#000000" stroke-width="1" /><text x="707.04" y="57.33" font-size="12" text-anchor="start">D2Q5</text><line x1="687.04" y1="52.95" x2="699.04" y2="52.95" stroke="#2c7a4b" stroke-width="2" /><text x="707.04" y="75.33" font-size="12" text-anchor="start">D2Q9</text><line x1="687.04" y1="70.95" x2="699.04" y2="70.95" stroke="#a74428" stroke-width="2" /></g></svg>